<svg id="visual" viewBox="0 0 540 960" width="540" height="960" xmlns="http://www.w3.org/2000/svg" xmlns:xlink="http://www.w3.org/1999/xlink" version="1.1"><path d="M0 39L5.7 42.3C11.3 45.7 22.7 52.3 34 54C45.3 55.7 56.7 52.3 67.8 49C79 45.7 90 42.3 101.2 40.7C112.3 39 123.7 39 135 37.5C146.3 36 157.7 33 169 36.3C180.3 39.7 191.7 49.3 202.8 50.8C214 52.3 225 45.7 236.2 44C247.3 42.3 258.7 45.7 270 49C281.3 52.3 292.7 55.7 304 52.5C315.3 49.3 326.7 39.7 337.8 38C349 36.3 360 42.7 371.2 42.7C382.3 42.7 393.7 36.3 405 38C416.3 39.7 427.7 49.3 439 52.5C450.3 55.7 461.7 52.3 472.8 49C484 45.7 495 42.3 506.2 40.7C517.3 39 528.7 39 534.3 39L540 39L540 0L534.3 0C528.7 0 517.3 0 506.2 0C495 0 484 0 472.8 0C461.7 0 450.3 0 439 0C427.7 0 416.3 0 405 0C393.7 0 382.3 0 371.2 0C360 0 349 0 337.8 0C326.7 0 315.3 0 304 0C292.7 0 281.3 0 270 0C258.7 0 247.3 0 236.2 0C225 0 214 0 202.8 0C191.7 0 180.3 0 169 0C157.7 0 146.3 0 135 0C123.7 0 112.3 0 101.2 0C90 0 79 0 67.8 0C56.7 0 45.3 0 34 0C22.7 0 11.3 0 5.7 0L0 0Z" fill="#001b43"></path><path d="M0 155L5.7 161.3C11.3 167.7 22.7 180.3 34 180.3C45.3 180.3 56.7 167.7 67.8 164.5C79 161.3 90 167.7 101.2 164.3C112.3 161 123.7 148 135 141.5C146.3 135 157.7 135 169 141.5C180.3 148 191.7 161 202.8 165.8C214 170.7 225 167.3 236.2 160.8C247.3 154.3 258.7 144.7 270 143.2C281.3 141.7 292.7 148.3 304 146.8C315.3 145.3 326.7 135.7 337.8 138.8C349 142 360 158 371.2 167.5C382.3 177 393.7 180 405 176.8C416.3 173.7 427.7 164.3 439 159.7C450.3 155 461.7 155 472.8 153.3C484 151.7 495 148.3 506.2 143.5C517.3 138.7 528.7 132.3 534.3 129.2L540 126L540 37L534.3 37C528.7 37 517.3 37 506.2 38.7C495 40.3 484 43.7 472.8 47C461.7 50.3 450.3 53.7 439 50.5C427.7 47.3 416.3 37.7 405 36C393.7 34.3 382.3 40.7 371.2 40.7C360 40.7 349 34.3 337.8 36C326.7 37.7 315.3 47.3 304 50.5C292.7 53.7 281.3 50.3 270 47C258.7 43.7 247.3 40.3 236.2 42C225 43.7 214 50.3 202.8 48.8C191.7 47.3 180.3 37.7 169 34.3C157.7 31 146.3 34 135 35.5C123.7 37 112.3 37 101.2 38.7C90 40.3 79 43.7 67.8 47C56.7 50.3 45.3 53.7 34 52C22.7 50.3 11.3 43.7 5.7 40.3L0 37Z" fill="#001941"></path><path d="M0 183L5.7 189.5C11.3 196 22.7 209 34 209C45.3 209 56.7 196 67.8 194.3C79 192.7 90 202.3 101.2 200.8C112.3 199.3 123.7 186.7 135 181.8C146.3 177 157.7 180 169 184.8C180.3 189.7 191.7 196.3 202.8 199.7C214 203 225 203 236.2 196.5C247.3 190 258.7 177 270 175.3C281.3 173.7 292.7 183.3 304 181.8C315.3 180.3 326.7 167.7 337.8 169.3C349 171 360 187 371.2 198.2C382.3 209.3 393.7 215.7 405 212.3C416.3 209 427.7 196 439 191.2C450.3 186.3 461.7 189.7 472.8 191.3C484 193 495 193 506.2 186.7C517.3 180.3 528.7 167.7 534.3 161.3L540 155L540 124L534.3 127.2C528.7 130.3 517.3 136.7 506.2 141.5C495 146.3 484 149.7 472.8 151.3C461.7 153 450.3 153 439 157.7C427.7 162.3 416.3 171.7 405 174.8C393.7 178 382.3 175 371.2 165.5C360 156 349 140 337.8 136.8C326.7 133.7 315.3 143.3 304 144.8C292.7 146.3 281.3 139.7 270 141.2C258.7 142.7 247.3 152.3 236.2 158.8C225 165.3 214 168.7 202.8 163.8C191.7 159 180.3 146 169 139.5C157.7 133 146.3 133 135 139.5C123.7 146 112.3 159 101.2 162.3C90 165.7 79 159.3 67.8 162.5C56.7 165.7 45.3 178.3 34 178.3C22.7 178.3 11.3 165.7 5.7 159.3L0 153Z" fill="#00173e"></path><path d="M0 299L5.7 305.3C11.3 311.7 22.7 324.3 34 324.3C45.3 324.3 56.7 311.7 67.8 306.8C79 302 90 305 101.2 295.3C112.3 285.7 123.7 263.3 135 261.8C146.3 260.3 157.7 279.7 169 286C180.3 292.3 191.7 285.7 202.8 288.8C214 292 225 305 236.2 300.3C247.3 295.7 258.7 273.3 270 266.8C281.3 260.3 292.7 269.7 304 271.2C315.3 272.7 326.7 266.3 337.8 269.7C349 273 360 286 371.2 294C382.3 302 393.7 305 405 303.3C416.3 301.7 427.7 295.3 439 290.5C450.3 285.7 461.7 282.3 472.8 279.2C484 276 495 273 506.2 263.5C517.3 254 528.7 238 534.3 230L540 222L540 153L534.3 159.3C528.7 165.7 517.3 178.3 506.2 184.7C495 191 484 191 472.8 189.3C461.7 187.7 450.3 184.3 439 189.2C427.7 194 416.3 207 405 210.3C393.7 213.7 382.3 207.3 371.2 196.2C360 185 349 169 337.8 167.3C326.7 165.7 315.3 178.3 304 179.8C292.7 181.3 281.3 171.7 270 173.3C258.7 175 247.3 188 236.2 194.5C225 201 214 201 202.8 197.7C191.7 194.3 180.3 187.7 169 182.8C157.7 178 146.3 175 135 179.8C123.7 184.7 112.3 197.3 101.2 198.8C90 200.3 79 190.7 67.8 192.3C56.7 194 45.3 207 34 207C22.7 207 11.3 194 5.7 187.5L0 181Z" fill="#00153c"></path><path d="M0 481L5.7 484.2C11.3 487.3 22.7 493.7 34 503.3C45.3 513 56.7 526 67.8 516.5C79 507 90 475 101.2 473.3C112.3 471.7 123.7 500.3 135 508.3C146.3 516.3 157.7 503.7 169 484.5C180.3 465.3 191.7 439.7 202.8 431.7C214 423.7 225 433.3 236.2 436.5C247.3 439.7 258.7 436.3 270 447.5C281.3 458.7 292.7 484.3 304 482.7C315.3 481 326.7 452 337.8 448.8C349 445.7 360 468.3 371.2 482.8C382.3 497.3 393.7 503.7 405 506.8C416.3 510 427.7 510 439 514.8C450.3 519.7 461.7 529.3 472.8 514.8C484 500.3 495 461.7 506.2 453.7C517.3 445.7 528.7 468.3 534.3 479.7L540 491L540 220L534.3 228C528.7 236 517.3 252 506.2 261.5C495 271 484 274 472.8 277.2C461.7 280.3 450.3 283.7 439 288.5C427.7 293.3 416.3 299.7 405 301.3C393.7 303 382.3 300 371.2 292C360 284 349 271 337.8 267.7C326.7 264.3 315.3 270.7 304 269.2C292.7 267.7 281.3 258.3 270 264.8C258.7 271.3 247.3 293.7 236.2 298.3C225 303 214 290 202.8 286.8C191.7 283.7 180.3 290.3 169 284C157.7 277.7 146.3 258.3 135 259.8C123.7 261.3 112.3 283.7 101.2 293.3C90 303 79 300 67.8 304.8C56.7 309.7 45.3 322.3 34 322.3C22.7 322.3 11.3 309.7 5.7 303.3L0 297Z" fill="#001339"></path><path d="M0 529L5.7 532.2C11.3 535.3 22.7 541.7 34 552.8C45.3 564 56.7 580 67.8 570.5C79 561 90 526 101.2 521.2C112.3 516.3 123.7 541.7 135 554.3C146.3 567 157.7 567 169 549.5C180.3 532 191.7 497 202.8 487.5C214 478 225 494 236.2 495.5C247.3 497 258.7 484 270 490.3C281.3 496.7 292.7 522.3 304 524C315.3 525.7 326.7 503.3 337.8 501.8C349 500.3 360 519.7 371.2 535.7C382.3 551.7 393.7 564.3 405 569C416.3 573.7 427.7 570.3 439 570.3C450.3 570.3 461.7 573.7 472.8 556.2C484 538.7 495 500.3 506.2 495.5C517.3 490.7 528.7 519.3 534.3 533.7L540 548L540 489L534.3 477.7C528.7 466.3 517.3 443.7 506.2 451.7C495 459.7 484 498.3 472.8 512.8C461.7 527.3 450.3 517.7 439 512.8C427.7 508 416.3 508 405 504.8C393.7 501.7 382.3 495.3 371.2 480.8C360 466.3 349 443.7 337.8 446.8C326.7 450 315.3 479 304 480.7C292.7 482.3 281.3 456.7 270 445.5C258.7 434.3 247.3 437.7 236.2 434.5C225 431.3 214 421.7 202.8 429.7C191.7 437.7 180.3 463.3 169 482.5C157.7 501.7 146.3 514.3 135 506.3C123.7 498.3 112.3 469.7 101.2 471.3C90 473 79 505 67.8 514.5C56.7 524 45.3 511 34 501.3C22.7 491.7 11.3 485.3 5.7 482.2L0 479Z" fill="#001037"></path><path d="M0 567L5.7 568.7C11.3 570.3 22.7 573.7 34 583.3C45.3 593 56.7 609 67.8 602.7C79 596.3 90 567.7 101.2 564.5C112.3 561.3 123.7 583.7 135 594.8C146.3 606 157.7 606 169 588.3C180.3 570.7 191.7 535.3 202.8 527.3C214 519.3 225 538.7 236.2 540.3C247.3 542 258.7 526 270 532.3C281.3 538.7 292.7 567.3 304 572.2C315.3 577 326.7 558 337.8 554.8C349 551.7 360 564.3 371.2 578.7C382.3 593 393.7 609 405 615.3C416.3 621.7 427.7 618.3 439 616.7C450.3 615 461.7 615 472.8 597.5C484 580 495 545 506.2 541.8C517.3 538.7 528.7 567.3 534.3 581.7L540 596L540 546L534.3 531.7C528.7 517.3 517.3 488.7 506.2 493.5C495 498.3 484 536.7 472.8 554.2C461.7 571.7 450.3 568.3 439 568.3C427.7 568.3 416.3 571.7 405 567C393.7 562.3 382.3 549.7 371.2 533.7C360 517.7 349 498.3 337.8 499.8C326.7 501.3 315.3 523.7 304 522C292.7 520.3 281.3 494.7 270 488.3C258.7 482 247.3 495 236.2 493.5C225 492 214 476 202.8 485.5C191.7 495 180.3 530 169 547.5C157.7 565 146.3 565 135 552.3C123.7 539.7 112.3 514.3 101.2 519.2C90 524 79 559 67.8 568.5C56.7 578 45.3 562 34 550.8C22.7 539.7 11.3 533.3 5.7 530.2L0 527Z" fill="#000c34"></path><path d="M0 798L5.7 791.5C11.3 785 22.7 772 34 767.2C45.3 762.3 56.7 765.7 67.8 762.5C79 759.3 90 749.7 101.2 751.3C112.3 753 123.7 766 135 774C146.3 782 157.7 785 169 780.2C180.3 775.3 191.7 762.7 202.8 761.2C214 759.7 225 769.3 236.2 775.7C247.3 782 258.7 785 270 781.7C281.3 778.3 292.7 768.7 304 767.2C315.3 765.7 326.7 772.3 337.8 774C349 775.7 360 772.3 371.2 775.5C382.3 778.7 393.7 788.3 405 790C416.3 791.7 427.7 785.3 439 782.2C450.3 779 461.7 779 472.8 777.3C484 775.7 495 772.3 506.2 772.3C517.3 772.3 528.7 775.7 534.3 777.3L540 779L540 594L534.3 579.7C528.7 565.3 517.3 536.7 506.2 539.8C495 543 484 578 472.8 595.5C461.7 613 450.3 613 439 614.7C427.7 616.3 416.3 619.7 405 613.3C393.7 607 382.3 591 371.2 576.7C360 562.3 349 549.7 337.8 552.8C326.7 556 315.3 575 304 570.2C292.7 565.3 281.3 536.7 270 530.3C258.7 524 247.3 540 236.2 538.3C225 536.7 214 517.3 202.8 525.3C191.7 533.3 180.3 568.7 169 586.3C157.7 604 146.3 604 135 592.8C123.7 581.7 112.3 559.3 101.2 562.5C90 565.7 79 594.3 67.8 600.7C56.7 607 45.3 591 34 581.3C22.7 571.7 11.3 568.3 5.7 566.7L0 565Z" fill="#000832"></path><path d="M0 855L5.7 845.5C11.3 836 22.7 817 34 809C45.3 801 56.7 804 67.8 802.3C79 800.7 90 794.3 101.2 796C112.3 797.7 123.7 807.3 135 813.8C146.3 820.3 157.7 823.7 169 823.7C180.3 823.7 191.7 820.3 202.8 823.5C214 826.7 225 836.3 236.2 838C247.3 839.7 258.7 833.3 270 828.5C281.3 823.7 292.7 820.3 304 821.8C315.3 823.3 326.7 829.7 337.8 829.7C349 829.7 360 823.3 371.2 825C382.3 826.7 393.7 836.3 405 839.5C416.3 842.7 427.7 839.3 439 836.2C450.3 833 461.7 830 472.8 826.8C484 823.7 495 820.3 506.2 818.7C517.3 817 528.7 817 534.3 817L540 817L540 777L534.3 775.3C528.7 773.7 517.3 770.3 506.2 770.3C495 770.3 484 773.7 472.8 775.3C461.7 777 450.3 777 439 780.2C427.7 783.3 416.3 789.7 405 788C393.7 786.3 382.3 776.7 371.2 773.5C360 770.3 349 773.7 337.8 772C326.7 770.3 315.3 763.7 304 765.2C292.7 766.7 281.3 776.3 270 779.7C258.7 783 247.3 780 236.2 773.7C225 767.3 214 757.7 202.8 759.2C191.7 760.7 180.3 773.3 169 778.2C157.7 783 146.3 780 135 772C123.7 764 112.3 751 101.2 749.3C90 747.7 79 757.3 67.8 760.5C56.7 763.7 45.3 760.3 34 765.2C22.7 770 11.3 783 5.7 789.5L0 796Z" fill="#00042f"></path><path d="M0 913L5.7 908.2C11.3 903.3 22.7 893.7 34 893.7C45.3 893.7 56.7 903.3 67.8 901.8C79 900.3 90 887.7 101.2 884.5C112.3 881.3 123.7 887.7 135 892.3C146.3 897 157.7 900 169 901.5C180.3 903 191.7 903 202.8 901.5C214 900 225 897 236.2 898.7C247.3 900.3 258.7 906.7 270 905C281.3 903.3 292.7 893.7 304 893.7C315.3 893.7 326.7 903.3 337.8 906.5C349 909.7 360 906.3 371.2 906.3C382.3 906.3 393.7 909.7 405 909.7C416.3 909.7 427.7 906.3 439 906.3C450.3 906.3 461.7 909.7 472.8 905C484 900.3 495 887.7 506.2 882.8C517.3 878 528.7 881 534.3 882.5L540 884L540 815L534.3 815C528.7 815 517.3 815 506.2 816.7C495 818.3 484 821.7 472.8 824.8C461.7 828 450.3 831 439 834.2C427.7 837.3 416.3 840.7 405 837.5C393.7 834.3 382.3 824.7 371.2 823C360 821.3 349 827.7 337.8 827.7C326.7 827.7 315.3 821.3 304 819.8C292.7 818.3 281.3 821.7 270 826.5C258.7 831.3 247.3 837.7 236.2 836C225 834.3 214 824.7 202.8 821.5C191.7 818.3 180.3 821.7 169 821.7C157.7 821.7 146.3 818.3 135 811.8C123.7 805.3 112.3 795.7 101.2 794C90 792.3 79 798.7 67.8 800.3C56.7 802 45.3 799 34 807C22.7 815 11.3 834 5.7 843.5L0 853Z" fill="#00002d"></path><path d="M0 961L5.7 961C11.3 961 22.7 961 34 961C45.3 961 56.7 961 67.8 961C79 961 90 961 101.2 961C112.3 961 123.7 961 135 961C146.3 961 157.7 961 169 961C180.3 961 191.7 961 202.8 961C214 961 225 961 236.2 961C247.3 961 258.7 961 270 961C281.3 961 292.7 961 304 961C315.3 961 326.7 961 337.8 961C349 961 360 961 371.2 961C382.3 961 393.7 961 405 961C416.3 961 427.7 961 439 961C450.3 961 461.7 961 472.8 961C484 961 495 961 506.2 961C517.3 961 528.7 961 534.3 961L540 961L540 882L534.3 880.5C528.7 879 517.3 876 506.2 880.8C495 885.7 484 898.3 472.8 903C461.7 907.7 450.3 904.3 439 904.3C427.7 904.3 416.3 907.7 405 907.7C393.7 907.7 382.3 904.3 371.2 904.3C360 904.3 349 907.7 337.8 904.5C326.7 901.3 315.3 891.7 304 891.7C292.7 891.7 281.3 901.3 270 903C258.7 904.7 247.3 898.3 236.2 896.7C225 895 214 898 202.8 899.5C191.7 901 180.3 901 169 899.5C157.7 898 146.3 895 135 890.3C123.7 885.7 112.3 879.3 101.2 882.5C90 885.7 79 898.3 67.8 899.8C56.7 901.3 45.3 891.7 34 891.7C22.7 891.7 11.3 901.3 5.7 906.2L0 911Z" fill="#000000"></path></svg>