<svg id="visual" viewBox="0 0 960 540" width="960" height="540" xmlns="http://www.w3.org/2000/svg" xmlns:xlink="http://www.w3.org/1999/xlink" version="1.1"><path d="M0 33L8.5 33C17 33 34 33 50.8 33C67.7 33 84.3 33 101.2 33C118 33 135 33 151.8 33C168.7 33 185.3 33 202.2 33C219 33 236 33 252.8 33C269.7 33 286.3 33 303.2 33C320 33 337 33 353.8 33C370.7 33 387.3 33 404.2 33C421 33 438 33 454.8 33C471.7 33 488.3 33 505.2 33C522 33 539 33 555.8 33C572.7 33 589.3 33 606.2 33C623 33 640 33 656.8 33C673.7 33 690.3 33 707.2 33C724 33 741 33 757.8 33C774.7 33 791.3 33 808.2 33C825 33 842 33 858.8 33C875.7 33 892.3 33 909.2 33C926 33 943 33 951.5 33L960 33L960 0L951.5 0C943 0 926 0 909.2 0C892.3 0 875.7 0 858.8 0C842 0 825 0 808.2 0C791.3 0 774.7 0 757.8 0C741 0 724 0 707.2 0C690.3 0 673.7 0 656.8 0C640 0 623 0 606.2 0C589.3 0 572.7 0 555.8 0C539 0 522 0 505.2 0C488.3 0 471.7 0 454.8 0C438 0 421 0 404.2 0C387.3 0 370.7 0 353.8 0C337 0 320 0 303.2 0C286.3 0 269.7 0 252.8 0C236 0 219 0 202.2 0C185.3 0 168.7 0 151.8 0C135 0 118 0 101.2 0C84.3 0 67.7 0 50.8 0C34 0 17 0 8.5 0L0 0Z" fill="#00193e"></path><path d="M0 87L8.5 86.2C17 85.3 34 83.7 50.8 82.8C67.7 82 84.3 82 101.2 82C118 82 135 82 151.8 82C168.7 82 185.3 82 202.2 82C219 82 236 82 252.8 82C269.7 82 286.3 82 303.2 82C320 82 337 82 353.8 82C370.7 82 387.3 82 404.2 82.8C421 83.7 438 85.3 454.8 85.3C471.7 85.3 488.3 83.7 505.2 82.8C522 82 539 82 555.8 82C572.7 82 589.3 82 606.2 82.8C623 83.7 640 85.3 656.8 85.3C673.7 85.3 690.3 83.7 707.2 83.7C724 83.7 741 85.3 757.8 86.2C774.7 87 791.3 87 808.2 86.2C825 85.3 842 83.7 858.8 82.8C875.7 82 892.3 82 909.2 82.8C926 83.7 943 85.3 951.5 86.2L960 87L960 31L951.5 31C943 31 926 31 909.2 31C892.3 31 875.7 31 858.8 31C842 31 825 31 808.2 31C791.3 31 774.7 31 757.8 31C741 31 724 31 707.2 31C690.3 31 673.7 31 656.8 31C640 31 623 31 606.2 31C589.3 31 572.7 31 555.8 31C539 31 522 31 505.2 31C488.3 31 471.7 31 454.8 31C438 31 421 31 404.2 31C387.3 31 370.7 31 353.8 31C337 31 320 31 303.2 31C286.3 31 269.7 31 252.8 31C236 31 219 31 202.2 31C185.3 31 168.7 31 151.8 31C135 31 118 31 101.2 31C84.3 31 67.7 31 50.8 31C34 31 17 31 8.5 31L0 31Z" fill="#041739"></path><path d="M0 158L8.5 156.2C17 154.3 34 150.7 50.8 149.7C67.7 148.7 84.3 150.3 101.2 150.3C118 150.3 135 148.7 151.8 147.8C168.7 147 185.3 147 202.2 147.8C219 148.7 236 150.3 252.8 151.2C269.7 152 286.3 152 303.2 151.2C320 150.3 337 148.7 353.8 147.8C370.7 147 387.3 147 404.2 147C421 147 438 147 454.8 147.8C471.7 148.7 488.3 150.3 505.2 151.2C522 152 539 152 555.8 150.2C572.7 148.3 589.3 144.7 606.2 144.7C623 144.7 640 148.3 656.8 150.2C673.7 152 690.3 152 707.2 153C724 154 741 156 757.8 157C774.7 158 791.3 158 808.2 157C825 156 842 154 858.8 152.2C875.7 150.3 892.3 148.7 909.2 149.7C926 150.7 943 154.3 951.5 156.2L960 158L960 85L951.5 84.2C943 83.3 926 81.7 909.2 80.8C892.3 80 875.7 80 858.8 80.8C842 81.7 825 83.3 808.2 84.2C791.3 85 774.7 85 757.8 84.2C741 83.3 724 81.7 707.2 81.7C690.3 81.7 673.7 83.3 656.8 83.3C640 83.3 623 81.7 606.2 80.8C589.3 80 572.7 80 555.8 80C539 80 522 80 505.2 80.8C488.3 81.7 471.7 83.3 454.8 83.3C438 83.3 421 81.7 404.2 80.8C387.3 80 370.7 80 353.8 80C337 80 320 80 303.2 80C286.3 80 269.7 80 252.8 80C236 80 219 80 202.2 80C185.3 80 168.7 80 151.8 80C135 80 118 80 101.2 80C84.3 80 67.7 80 50.8 80.8C34 81.7 17 83.3 8.5 84.2L0 85Z" fill="#081534"></path><path d="M0 190L8.5 188.2C17 186.3 34 182.7 50.8 181.8C67.7 181 84.3 183 101.2 183C118 183 135 181 151.8 180C168.7 179 185.3 179 202.2 180.8C219 182.7 236 186.3 252.8 187.3C269.7 188.3 286.3 186.7 303.2 185.8C320 185 337 185 353.8 185C370.7 185 387.3 185 404.2 185C421 185 438 185 454.8 185C471.7 185 488.3 185 505.2 185C522 185 539 185 555.8 184C572.7 183 589.3 181 606.2 181C623 181 640 183 656.8 184.8C673.7 186.7 690.3 188.3 707.2 190C724 191.7 741 193.3 757.8 193.3C774.7 193.3 791.3 191.7 808.2 190C825 188.3 842 186.7 858.8 185.8C875.7 185 892.3 185 909.2 186.7C926 188.3 943 191.7 951.5 193.3L960 195L960 156L951.5 154.2C943 152.3 926 148.7 909.2 147.7C892.3 146.7 875.7 148.3 858.8 150.2C842 152 825 154 808.2 155C791.3 156 774.7 156 757.8 155C741 154 724 152 707.2 151C690.3 150 673.7 150 656.8 148.2C640 146.3 623 142.7 606.2 142.7C589.3 142.7 572.7 146.3 555.8 148.2C539 150 522 150 505.2 149.2C488.3 148.3 471.7 146.7 454.8 145.8C438 145 421 145 404.2 145C387.3 145 370.7 145 353.8 145.8C337 146.7 320 148.3 303.2 149.2C286.3 150 269.7 150 252.8 149.2C236 148.3 219 146.7 202.2 145.8C185.3 145 168.7 145 151.8 145.8C135 146.7 118 148.3 101.2 148.3C84.3 148.3 67.7 146.7 50.8 147.7C34 148.7 17 152.3 8.5 154.2L0 156Z" fill="#0b132f"></path><path d="M0 303L8.5 301.3C17 299.7 34 296.3 50.8 292.8C67.7 289.3 84.3 285.7 101.2 284.7C118 283.7 135 285.3 151.8 286.2C168.7 287 185.3 287 202.2 286.2C219 285.3 236 283.7 252.8 283.7C269.7 283.7 286.3 285.3 303.2 288C320 290.7 337 294.3 353.8 296.2C370.7 298 387.3 298 404.2 297.2C421 296.3 438 294.7 454.8 294.7C471.7 294.7 488.3 296.3 505.2 294.5C522 292.7 539 287.3 555.8 286.5C572.7 285.7 589.3 289.3 606.2 289.3C623 289.3 640 285.7 656.8 284.7C673.7 283.7 690.3 285.3 707.2 287.2C724 289 741 291 757.8 292C774.7 293 791.3 293 808.2 293C825 293 842 293 858.8 291.2C875.7 289.3 892.3 285.7 909.2 286.5C926 287.3 943 292.7 951.5 295.3L960 298L960 193L951.5 191.3C943 189.7 926 186.3 909.2 184.7C892.3 183 875.7 183 858.8 183.8C842 184.7 825 186.3 808.2 188C791.3 189.7 774.7 191.3 757.8 191.3C741 191.3 724 189.7 707.2 188C690.3 186.3 673.7 184.7 656.8 182.8C640 181 623 179 606.2 179C589.3 179 572.7 181 555.8 182C539 183 522 183 505.2 183C488.3 183 471.7 183 454.8 183C438 183 421 183 404.2 183C387.3 183 370.7 183 353.8 183C337 183 320 183 303.2 183.8C286.3 184.7 269.7 186.3 252.8 185.3C236 184.3 219 180.7 202.2 178.8C185.3 177 168.7 177 151.8 178C135 179 118 181 101.2 181C84.3 181 67.7 179 50.8 179.8C34 180.7 17 184.3 8.5 186.2L0 188Z" fill="#0c112a"></path><path d="M0 325L8.5 323.2C17 321.3 34 317.7 50.8 314C67.7 310.3 84.3 306.7 101.2 305.8C118 305 135 307 151.8 308C168.7 309 185.3 309 202.2 308C219 307 236 305 252.8 305C269.7 305 286.3 307 303.2 309.8C320 312.7 337 316.3 353.8 318.2C370.7 320 387.3 320 404.2 319C421 318 438 316 454.8 316C471.7 316 488.3 318 505.2 316.2C522 314.3 539 308.7 555.8 307.7C572.7 306.7 589.3 310.3 606.2 310.3C623 310.3 640 306.7 656.8 305.8C673.7 305 690.3 307 707.2 308.8C724 310.7 741 312.3 757.8 313.2C774.7 314 791.3 314 808.2 314C825 314 842 314 858.8 312.2C875.7 310.3 892.3 306.7 909.2 307.7C926 308.7 943 314.3 951.5 317.2L960 320L960 296L951.5 293.3C943 290.7 926 285.3 909.2 284.5C892.3 283.7 875.7 287.3 858.8 289.2C842 291 825 291 808.2 291C791.3 291 774.7 291 757.8 290C741 289 724 287 707.2 285.2C690.3 283.3 673.7 281.7 656.8 282.7C640 283.7 623 287.3 606.2 287.3C589.3 287.3 572.7 283.7 555.8 284.5C539 285.3 522 290.7 505.2 292.5C488.3 294.3 471.7 292.7 454.8 292.7C438 292.7 421 294.3 404.2 295.2C387.3 296 370.7 296 353.8 294.2C337 292.3 320 288.7 303.2 286C286.3 283.3 269.7 281.7 252.8 281.7C236 281.7 219 283.3 202.2 284.2C185.3 285 168.7 285 151.8 284.2C135 283.3 118 281.7 101.2 282.7C84.3 283.7 67.7 287.3 50.8 290.8C34 294.3 17 297.7 8.5 299.3L0 301Z" fill="#0d0e25"></path><path d="M0 363L8.5 362C17 361 34 359 50.8 355.3C67.7 351.7 84.3 346.3 101.2 344.7C118 343 135 345 151.8 346C168.7 347 185.3 347 202.2 347C219 347 236 347 252.8 347.8C269.7 348.7 286.3 350.3 303.2 352C320 353.7 337 355.3 353.8 357.2C370.7 359 387.3 361 404.2 361C421 361 438 359 454.8 358C471.7 357 488.3 357 505.2 354.3C522 351.7 539 346.3 555.8 346.3C572.7 346.3 589.3 351.7 606.2 352.7C623 353.7 640 350.3 656.8 348.7C673.7 347 690.3 347 707.2 348.7C724 350.3 741 353.7 757.8 355.3C774.7 357 791.3 357 808.2 356.2C825 355.3 842 353.7 858.8 352C875.7 350.3 892.3 348.7 909.2 349.5C926 350.3 943 353.7 951.5 355.3L960 357L960 318L951.5 315.2C943 312.3 926 306.7 909.2 305.7C892.3 304.7 875.7 308.3 858.8 310.2C842 312 825 312 808.2 312C791.3 312 774.7 312 757.8 311.2C741 310.3 724 308.7 707.2 306.8C690.3 305 673.7 303 656.8 303.8C640 304.7 623 308.3 606.2 308.3C589.3 308.3 572.7 304.7 555.8 305.7C539 306.7 522 312.3 505.2 314.2C488.3 316 471.7 314 454.8 314C438 314 421 316 404.2 317C387.3 318 370.7 318 353.8 316.2C337 314.3 320 310.7 303.2 307.8C286.3 305 269.7 303 252.8 303C236 303 219 305 202.2 306C185.3 307 168.7 307 151.8 306C135 305 118 303 101.2 303.8C84.3 304.7 67.7 308.3 50.8 312C34 315.7 17 319.3 8.5 321.2L0 323Z" fill="#0c0b20"></path><path d="M0 384L8.5 383.2C17 382.3 34 380.7 50.8 377.2C67.7 373.7 84.3 368.3 101.2 366.5C118 364.7 135 366.3 151.8 367.2C168.7 368 185.3 368 202.2 368C219 368 236 368 252.8 369C269.7 370 286.3 372 303.2 373.8C320 375.7 337 377.3 353.8 379C370.7 380.7 387.3 382.3 404.2 382.3C421 382.3 438 380.7 454.8 379.8C471.7 379 488.3 379 505.2 376.3C522 373.7 539 368.3 555.8 368.3C572.7 368.3 589.3 373.7 606.2 374.5C623 375.3 640 371.7 656.8 369.8C673.7 368 690.3 368 707.2 369.8C724 371.7 741 375.3 757.8 377.2C774.7 379 791.3 379 808.2 378.2C825 377.3 842 375.7 858.8 373.8C875.7 372 892.3 370 909.2 370.8C926 371.7 943 375.3 951.5 377.2L960 379L960 355L951.5 353.3C943 351.7 926 348.3 909.2 347.5C892.3 346.7 875.7 348.3 858.8 350C842 351.7 825 353.3 808.2 354.2C791.3 355 774.7 355 757.8 353.3C741 351.7 724 348.3 707.2 346.7C690.3 345 673.7 345 656.8 346.7C640 348.3 623 351.7 606.2 350.7C589.3 349.7 572.7 344.3 555.8 344.3C539 344.3 522 349.7 505.2 352.3C488.3 355 471.7 355 454.8 356C438 357 421 359 404.2 359C387.3 359 370.7 357 353.8 355.2C337 353.3 320 351.7 303.2 350C286.3 348.3 269.7 346.7 252.8 345.8C236 345 219 345 202.2 345C185.3 345 168.7 345 151.8 344C135 343 118 341 101.2 342.7C84.3 344.3 67.7 349.7 50.8 353.3C34 357 17 359 8.5 360L0 361Z" fill="#0b081c"></path><path d="M0 411L8.5 410.2C17 409.3 34 407.7 50.8 404.2C67.7 400.7 84.3 395.3 101.2 393.5C118 391.7 135 393.3 151.8 394.2C168.7 395 185.3 395 202.2 395C219 395 236 395 252.8 396C269.7 397 286.3 399 303.2 400.8C320 402.7 337 404.3 353.8 406C370.7 407.7 387.3 409.3 404.2 409.3C421 409.3 438 407.7 454.8 406.8C471.7 406 488.3 406 505.2 403.3C522 400.7 539 395.3 555.8 395.3C572.7 395.3 589.3 400.7 606.2 401.5C623 402.3 640 398.7 656.8 396.8C673.7 395 690.3 395 707.2 396.8C724 398.7 741 402.3 757.8 404.2C774.7 406 791.3 406 808.2 405.2C825 404.3 842 402.7 858.8 400.8C875.7 399 892.3 397 909.2 397.8C926 398.7 943 402.3 951.5 404.2L960 406L960 377L951.5 375.2C943 373.3 926 369.7 909.2 368.8C892.3 368 875.7 370 858.8 371.8C842 373.7 825 375.3 808.2 376.2C791.3 377 774.7 377 757.8 375.2C741 373.3 724 369.7 707.2 367.8C690.3 366 673.7 366 656.8 367.8C640 369.7 623 373.3 606.2 372.5C589.3 371.7 572.7 366.3 555.8 366.3C539 366.3 522 371.7 505.2 374.3C488.3 377 471.7 377 454.8 377.8C438 378.7 421 380.3 404.2 380.3C387.3 380.3 370.7 378.7 353.8 377C337 375.3 320 373.7 303.2 371.8C286.3 370 269.7 368 252.8 367C236 366 219 366 202.2 366C185.3 366 168.7 366 151.8 365.2C135 364.3 118 362.7 101.2 364.5C84.3 366.3 67.7 371.7 50.8 375.2C34 378.7 17 380.3 8.5 381.2L0 382Z" fill="#080617"></path><path d="M0 514L8.5 514C17 514 34 514 50.8 514C67.7 514 84.3 514 101.2 514C118 514 135 514 151.8 514C168.7 514 185.3 514 202.2 514C219 514 236 514 252.8 514C269.7 514 286.3 514 303.2 514C320 514 337 514 353.8 514C370.7 514 387.3 514 404.2 514C421 514 438 514 454.8 514C471.7 514 488.3 514 505.2 514C522 514 539 514 555.8 514C572.7 514 589.3 514 606.2 514C623 514 640 514 656.8 514C673.7 514 690.3 514 707.2 514C724 514 741 514 757.8 514C774.7 514 791.3 514 808.2 514C825 514 842 514 858.8 514C875.7 514 892.3 514 909.2 514C926 514 943 514 951.5 514L960 514L960 404L951.5 402.2C943 400.3 926 396.7 909.2 395.8C892.3 395 875.7 397 858.8 398.8C842 400.7 825 402.3 808.2 403.2C791.3 404 774.7 404 757.8 402.2C741 400.3 724 396.7 707.2 394.8C690.3 393 673.7 393 656.8 394.8C640 396.7 623 400.3 606.2 399.5C589.3 398.7 572.7 393.3 555.8 393.3C539 393.3 522 398.7 505.2 401.3C488.3 404 471.7 404 454.8 404.8C438 405.7 421 407.3 404.2 407.3C387.3 407.3 370.7 405.7 353.8 404C337 402.3 320 400.7 303.2 398.8C286.3 397 269.7 395 252.8 394C236 393 219 393 202.2 393C185.3 393 168.7 393 151.8 392.2C135 391.3 118 389.7 101.2 391.5C84.3 393.3 67.7 398.7 50.8 402.2C34 405.7 17 407.3 8.5 408.2L0 409Z" fill="#050312"></path><path d="M0 541L8.5 541C17 541 34 541 50.8 541C67.7 541 84.3 541 101.2 541C118 541 135 541 151.8 541C168.7 541 185.3 541 202.2 541C219 541 236 541 252.8 541C269.7 541 286.3 541 303.2 541C320 541 337 541 353.8 541C370.7 541 387.3 541 404.2 541C421 541 438 541 454.8 541C471.7 541 488.3 541 505.2 541C522 541 539 541 555.8 541C572.7 541 589.3 541 606.2 541C623 541 640 541 656.8 541C673.7 541 690.3 541 707.2 541C724 541 741 541 757.8 541C774.7 541 791.3 541 808.2 541C825 541 842 541 858.8 541C875.7 541 892.3 541 909.2 541C926 541 943 541 951.5 541L960 541L960 512L951.5 512C943 512 926 512 909.2 512C892.3 512 875.7 512 858.8 512C842 512 825 512 808.2 512C791.3 512 774.7 512 757.8 512C741 512 724 512 707.2 512C690.3 512 673.7 512 656.8 512C640 512 623 512 606.2 512C589.3 512 572.7 512 555.8 512C539 512 522 512 505.2 512C488.3 512 471.7 512 454.8 512C438 512 421 512 404.2 512C387.3 512 370.7 512 353.8 512C337 512 320 512 303.2 512C286.3 512 269.7 512 252.8 512C236 512 219 512 202.2 512C185.3 512 168.7 512 151.8 512C135 512 118 512 101.2 512C84.3 512 67.7 512 50.8 512C34 512 17 512 8.5 512L0 512Z" fill="#02000c"></path></svg>