<svg id="visual" viewBox="0 0 540 960" width="540" height="960" xmlns="http://www.w3.org/2000/svg" xmlns:xlink="http://www.w3.org/1999/xlink" version="1.1"><path d="M0 39L7.5 37.5C15 36 30 33 45 31.5C60 30 75 30 90 31.5C105 33 120 36 135 37.5C150 39 165 39 180 39C195 39 210 39 225 39C240 39 255 39 270 37.5C285 36 300 33 315 31.5C330 30 345 30 360 31.5C375 33 390 36 405 37.5C420 39 435 39 450 37.5C465 36 480 33 495 31.5C510 30 525 30 532.5 30L540 30L540 0L532.5 0C525 0 510 0 495 0C480 0 465 0 450 0C435 0 420 0 405 0C390 0 375 0 360 0C345 0 330 0 315 0C300 0 285 0 270 0C255 0 240 0 225 0C210 0 195 0 180 0C165 0 150 0 135 0C120 0 105 0 90 0C75 0 60 0 45 0C30 0 15 0 7.5 0L0 0Z" fill="#001533"></path><path d="M0 87L7.5 83.8C15 80.7 30 74.3 45 71.2C60 68 75 68 90 69.7C105 71.3 120 74.7 135 76.3C150 78 165 78 180 78C195 78 210 78 225 79.5C240 81 255 84 270 82.3C285 80.7 300 74.3 315 72.8C330 71.3 345 74.7 360 76.3C375 78 390 78 405 78C420 78 435 78 450 78C465 78 480 78 495 78C510 78 525 78 532.5 78L540 78L540 28L532.5 28C525 28 510 28 495 29.5C480 31 465 34 450 35.5C435 37 420 37 405 35.5C390 34 375 31 360 29.5C345 28 330 28 315 29.5C300 31 285 34 270 35.5C255 37 240 37 225 37C210 37 195 37 180 37C165 37 150 37 135 35.5C120 34 105 31 90 29.5C75 28 60 28 45 29.5C30 31 15 34 7.5 35.5L0 37Z" fill="#001332"></path><path d="M0 126L7.5 124.3C15 122.7 30 119.3 45 116.2C60 113 75 110 90 111.7C105 113.3 120 119.7 135 121.2C150 122.7 165 119.3 180 117.7C195 116 210 116 225 119.2C240 122.3 255 128.7 270 128.7C285 128.7 300 122.3 315 119.2C330 116 345 116 360 116C375 116 390 116 405 116C420 116 435 116 450 116C465 116 480 116 495 116C510 116 525 116 532.5 116L540 116L540 76L532.5 76C525 76 510 76 495 76C480 76 465 76 450 76C435 76 420 76 405 76C390 76 375 76 360 74.3C345 72.7 330 69.3 315 70.8C300 72.3 285 78.7 270 80.3C255 82 240 79 225 77.5C210 76 195 76 180 76C165 76 150 76 135 74.3C120 72.7 105 69.3 90 67.7C75 66 60 66 45 69.2C30 72.3 15 78.7 7.5 81.8L0 85Z" fill="#001230"></path><path d="M0 212L7.5 205.7C15 199.3 30 186.7 45 180.3C60 174 75 174 90 175.5C105 177 120 180 135 184.8C150 189.7 165 196.3 180 194.8C195 193.3 210 183.7 225 185.2C240 186.7 255 199.3 270 200.8C285 202.3 300 192.7 315 187.8C330 183 345 183 360 184.7C375 186.3 390 189.7 405 189.7C420 189.7 435 186.3 450 183.2C465 180 480 177 495 178.7C510 180.3 525 186.7 532.5 189.8L540 193L540 114L532.5 114C525 114 510 114 495 114C480 114 465 114 450 114C435 114 420 114 405 114C390 114 375 114 360 114C345 114 330 114 315 117.2C300 120.3 285 126.7 270 126.7C255 126.7 240 120.3 225 117.2C210 114 195 114 180 115.7C165 117.3 150 120.7 135 119.2C120 117.7 105 111.3 90 109.7C75 108 60 111 45 114.2C30 117.3 15 120.7 7.5 122.3L0 124Z" fill="#00102f"></path><path d="M0 260L7.5 255.2C15 250.3 30 240.7 45 235.8C60 231 75 231 90 229.5C105 228 120 225 135 228.3C150 231.7 165 241.3 180 239.7C195 238 210 225 225 228.2C240 231.3 255 250.7 270 252.3C285 254 300 238 315 233.2C330 228.3 345 234.7 360 239.5C375 244.3 390 247.7 405 244.5C420 241.3 435 231.7 450 228.3C465 225 480 228 495 231.2C510 234.3 525 237.7 532.5 239.3L540 241L540 191L532.5 187.8C525 184.7 510 178.3 495 176.7C480 175 465 178 450 181.2C435 184.3 420 187.7 405 187.7C390 187.7 375 184.3 360 182.7C345 181 330 181 315 185.8C300 190.7 285 200.3 270 198.8C255 197.3 240 184.7 225 183.2C210 181.7 195 191.3 180 192.8C165 194.3 150 187.7 135 182.8C120 178 105 175 90 173.5C75 172 60 172 45 178.3C30 184.7 15 197.3 7.5 203.7L0 210Z" fill="#000e2d"></path><path d="M0 443L7.5 441.3C15 439.7 30 436.3 45 429.8C60 423.3 75 413.7 90 415.3C105 417 120 430 135 434.8C150 439.7 165 436.3 180 436.3C195 436.3 210 439.7 225 450.8C240 462 255 481 270 474.5C285 468 300 436 315 426.5C330 417 345 430 360 442.8C375 455.7 390 468.3 405 465C420 461.7 435 442.3 450 436C465 429.7 480 436.3 495 441.2C510 446 525 449 532.5 450.5L540 452L540 239L532.5 237.3C525 235.7 510 232.3 495 229.2C480 226 465 223 450 226.3C435 229.7 420 239.3 405 242.5C390 245.7 375 242.3 360 237.5C345 232.7 330 226.3 315 231.2C300 236 285 252 270 250.3C255 248.7 240 229.3 225 226.2C210 223 195 236 180 237.7C165 239.3 150 229.7 135 226.3C120 223 105 226 90 227.5C75 229 60 229 45 233.8C30 238.7 15 248.3 7.5 253.2L0 258Z" fill="#000c2c"></path><path d="M0 510L7.5 508.3C15 506.7 30 503.3 45 493.7C60 484 75 468 90 469.7C105 471.3 120 490.7 135 497.2C150 503.7 165 497.3 180 495.7C195 494 210 497 225 506.5C240 516 255 532 270 524C285 516 300 484 315 476C330 468 345 484 360 496.8C375 509.7 390 519.3 405 517.8C420 516.3 435 503.7 450 500.5C465 497.3 480 503.7 495 506.8C510 510 525 510 532.5 510L540 510L540 450L532.5 448.5C525 447 510 444 495 439.2C480 434.3 465 427.7 450 434C435 440.3 420 459.7 405 463C390 466.3 375 453.7 360 440.8C345 428 330 415 315 424.5C300 434 285 466 270 472.5C255 479 240 460 225 448.8C210 437.7 195 434.3 180 434.3C165 434.3 150 437.7 135 432.8C120 428 105 415 90 413.3C75 411.7 60 421.3 45 427.8C30 434.3 15 437.7 7.5 439.3L0 441Z" fill="#000a2a"></path><path d="M0 577L7.5 578.7C15 580.3 30 583.7 45 578.8C60 574 75 561 90 564.2C105 567.3 120 586.7 135 591.5C150 596.3 165 586.7 180 585C195 583.3 210 589.7 225 597.7C240 605.7 255 615.3 270 609C285 602.7 300 580.3 315 574C330 567.7 345 577.3 360 588.5C375 599.7 390 612.3 405 610.7C420 609 435 593 450 588.2C465 583.3 480 589.7 495 592.8C510 596 525 596 532.5 596L540 596L540 508L532.5 508C525 508 510 508 495 504.8C480 501.7 465 495.3 450 498.5C435 501.7 420 514.3 405 515.8C390 517.3 375 507.7 360 494.8C345 482 330 466 315 474C300 482 285 514 270 522C255 530 240 514 225 504.5C210 495 195 492 180 493.7C165 495.3 150 501.7 135 495.2C120 488.7 105 469.3 90 467.7C75 466 60 482 45 491.7C30 501.3 15 504.7 7.5 506.3L0 508Z" fill="#000729"></path><path d="M0 673L7.5 679.3C15 685.7 30 698.3 45 698.3C60 698.3 75 685.7 90 689C105 692.3 120 711.7 135 710C150 708.3 165 685.7 180 680.8C195 676 210 689 225 698.7C240 708.3 255 714.7 270 706.7C285 698.7 300 676.3 315 674.7C330 673 345 692 360 701.5C375 711 390 711 405 709.5C420 708 435 705 450 703.5C465 702 480 702 495 702C510 702 525 702 532.5 702L540 702L540 594L532.5 594C525 594 510 594 495 590.8C480 587.7 465 581.3 450 586.2C435 591 420 607 405 608.7C390 610.3 375 597.7 360 586.5C345 575.3 330 565.7 315 572C300 578.3 285 600.7 270 607C255 613.3 240 603.7 225 595.7C210 587.7 195 581.3 180 583C165 584.7 150 594.3 135 589.5C120 584.7 105 565.3 90 562.2C75 559 60 572 45 576.8C30 581.7 15 578.3 7.5 576.7L0 575Z" fill="#000527"></path><path d="M0 884L7.5 880.8C15 877.7 30 871.3 45 868.2C60 865 75 865 90 868.2C105 871.3 120 877.7 135 877.7C150 877.7 165 871.3 180 868.2C195 865 210 865 225 866.7C240 868.3 255 871.7 270 871.7C285 871.7 300 868.3 315 866.7C330 865 345 865 360 865C375 865 390 865 405 866.7C420 868.3 435 871.7 450 874.8C465 878 480 881 495 882.5C510 884 525 884 532.5 884L540 884L540 700L532.5 700C525 700 510 700 495 700C480 700 465 700 450 701.5C435 703 420 706 405 707.5C390 709 375 709 360 699.5C345 690 330 671 315 672.7C300 674.3 285 696.7 270 704.7C255 712.7 240 706.3 225 696.7C210 687 195 674 180 678.8C165 683.7 150 706.3 135 708C120 709.7 105 690.3 90 687C75 683.7 60 696.3 45 696.3C30 696.3 15 683.7 7.5 677.3L0 671Z" fill="#000226"></path><path d="M0 913L7.5 911.3C15 909.7 30 906.3 45 903.2C60 900 75 897 90 898.7C105 900.3 120 906.7 135 908.2C150 909.7 165 906.3 180 903.2C195 900 210 897 225 897C240 897 255 900 270 901.5C285 903 300 903 315 903C330 903 345 903 360 903C375 903 390 903 405 904.7C420 906.3 435 909.7 450 911.3C465 913 480 913 495 913C510 913 525 913 532.5 913L540 913L540 882L532.5 882C525 882 510 882 495 880.5C480 879 465 876 450 872.8C435 869.7 420 866.3 405 864.7C390 863 375 863 360 863C345 863 330 863 315 864.7C300 866.3 285 869.7 270 869.7C255 869.7 240 866.3 225 864.7C210 863 195 863 180 866.2C165 869.3 150 875.7 135 875.7C120 875.7 105 869.3 90 866.2C75 863 60 863 45 866.2C30 869.3 15 875.7 7.5 878.8L0 882Z" fill="#000025"></path><path d="M0 961L7.5 961C15 961 30 961 45 961C60 961 75 961 90 961C105 961 120 961 135 961C150 961 165 961 180 961C195 961 210 961 225 961C240 961 255 961 270 961C285 961 300 961 315 961C330 961 345 961 360 961C375 961 390 961 405 961C420 961 435 961 450 961C465 961 480 961 495 961C510 961 525 961 532.5 961L540 961L540 911L532.5 911C525 911 510 911 495 911C480 911 465 911 450 909.3C435 907.7 420 904.3 405 902.7C390 901 375 901 360 901C345 901 330 901 315 901C300 901 285 901 270 899.5C255 898 240 895 225 895C210 895 195 898 180 901.2C165 904.3 150 907.7 135 906.2C120 904.7 105 898.3 90 896.7C75 895 60 898 45 901.2C30 904.3 15 907.7 7.5 909.3L0 911Z" fill="#000000"></path></svg>